<?xml version="1.0" encoding="UTF-8" ?>
<svg version="1.1" width="72" height="76" xmlns="http://www.w3.org/2000/svg" shape-rendering="crispEdges">
<rect x="0" y="0" width="72" height="1" fill="#00A9FE" />
<rect x="0" y="1" width="72" height="1" fill="#01A8FD" />
<rect x="0" y="2" width="72" height="1" fill="#02A8FC" />
<rect x="0" y="3" width="72" height="1" fill="#04A7FA" />
<rect x="0" y="4" width="72" height="1" fill="#06A6F9" />
<rect x="0" y="5" width="72" height="1" fill="#0AA5F6" />
<rect x="0" y="6" width="72" height="1" fill="#0CA4F5" />
<rect x="0" y="7" width="72" height="1" fill="#11A2F1" />
<rect x="0" y="8" width="72" height="1" fill="#15A1EF" />
<rect x="0" y="9" width="72" height="1" fill="#1D9EEA" />
<rect x="0" y="10" width="72" height="1" fill="#219DE7" />
<rect x="0" y="11" width="72" height="1" fill="#2B99DF" />
<rect x="0" y="12" width="72" height="1" fill="#3197DB" />
<rect x="0" y="13" width="72" height="1" fill="#3D93D3" />
<rect x="0" y="14" width="72" height="1" fill="#4391CF" />
<rect x="0" y="15" width="72" height="1" fill="#508CC7" />
<rect x="0" y="16" width="72" height="1" fill="#578AC2" />
<rect x="0" y="17" width="72" height="1" fill="#6585B8" />
<rect x="0" y="18" width="72" height="1" fill="#6B83B4" />
<rect x="0" y="19" width="72" height="1" fill="#7A7EAA" />
<rect x="0" y="20" width="72" height="1" fill="#827BA5" />
<rect x="0" y="21" width="72" height="1" fill="#90779B" />
<rect x="0" y="22" width="72" height="1" fill="#967597" />
<rect x="0" y="23" width="72" height="1" fill="#A4708E" />
<rect x="0" y="24" width="72" height="1" fill="#AB6E89" />
<rect x="0" y="25" width="72" height="1" fill="#B86A81" />
<rect x="0" y="26" width="72" height="1" fill="#BE687D" />
<rect x="0" y="27" width="72" height="1" fill="#CA6575" />
<rect x="0" y="28" width="72" height="1" fill="#D06371" />
<rect x="0" y="29" width="72" height="1" fill="#DB5F6A" />
<rect x="0" y="30" width="72" height="1" fill="#DF5E67" />
<rect x="0" y="31" width="42" height="1" fill="#E75B62" />
<rect x="42" y="31" width="3" height="1" fill="#E75B61" />
<rect x="45" y="31" width="14" height="1" fill="#E75C61" />
<rect x="59" y="31" width="3" height="1" fill="#E75B61" />
<rect x="62" y="31" width="10" height="1" fill="#E75B62" />
<rect x="0" y="32" width="34" height="1" fill="#EB5A60" />
<rect x="34" y="32" width="10" height="1" fill="#EB5A5F" />
<rect x="44" y="32" width="1" height="1" fill="#EB5A5E" />
<rect x="45" y="32" width="14" height="1" fill="#EB5B5E" />
<rect x="59" y="32" width="1" height="1" fill="#EB5A5E" />
<rect x="60" y="32" width="10" height="1" fill="#EB5A5F" />
<rect x="70" y="32" width="2" height="1" fill="#EB5A60" />
<rect x="0" y="33" width="35" height="1" fill="#F1585C" />
<rect x="35" y="33" width="9" height="1" fill="#F1585B" />
<rect x="44" y="33" width="16" height="1" fill="#F1595A" />
<rect x="60" y="33" width="9" height="1" fill="#F1585B" />
<rect x="69" y="33" width="3" height="1" fill="#F1585C" />
<rect x="0" y="34" width="34" height="1" fill="#F3575B" />
<rect x="34" y="34" width="8" height="1" fill="#F3575A" />
<rect x="42" y="34" width="20" height="1" fill="#F35859" />
<rect x="62" y="34" width="8" height="1" fill="#F3575A" />
<rect x="70" y="34" width="2" height="1" fill="#F3575B" />
<rect x="0" y="35" width="35" height="1" fill="#F75658" />
<rect x="35" y="35" width="6" height="1" fill="#F75657" />
<rect x="41" y="35" width="2" height="1" fill="#F75757" />
<rect x="43" y="35" width="18" height="1" fill="#F75756" />
<rect x="61" y="35" width="2" height="1" fill="#F75757" />
<rect x="63" y="35" width="6" height="1" fill="#F75657" />
<rect x="69" y="35" width="3" height="1" fill="#F75658" />
<rect x="0" y="36" width="34" height="1" fill="#F95657" />
<rect x="34" y="36" width="8" height="1" fill="#F95656" />
<rect x="42" y="36" width="20" height="1" fill="#F95755" />
<rect x="62" y="36" width="8" height="1" fill="#F95656" />
<rect x="70" y="36" width="2" height="1" fill="#F95657" />
<rect x="0" y="37" width="33" height="1" fill="#FB5655" />
<rect x="33" y="37" width="8" height="1" fill="#FB5654" />
<rect x="41" y="37" width="2" height="1" fill="#FB5653" />
<rect x="43" y="37" width="18" height="1" fill="#FB5753" />
<rect x="61" y="37" width="2" height="1" fill="#FB5653" />
<rect x="63" y="37" width="8" height="1" fill="#FB5654" />
<rect x="71" y="37" width="1" height="1" fill="#FB5655" />
<rect x="0" y="38" width="33" height="1" fill="#FC5654" />
<rect x="33" y="38" width="8" height="1" fill="#FC5653" />
<rect x="41" y="38" width="2" height="1" fill="#FC5652" />
<rect x="43" y="38" width="18" height="1" fill="#FC5752" />
<rect x="61" y="38" width="2" height="1" fill="#FC5652" />
<rect x="63" y="38" width="8" height="1" fill="#FC5653" />
<rect x="71" y="38" width="1" height="1" fill="#FC5654" />
<rect x="0" y="39" width="31" height="1" fill="#FD5753" />
<rect x="31" y="39" width="8" height="1" fill="#FD5752" />
<rect x="39" y="39" width="4" height="1" fill="#FD5751" />
<rect x="43" y="39" width="6" height="1" fill="#FD5851" />
<rect x="49" y="39" width="6" height="1" fill="#FD5951" />
<rect x="55" y="39" width="6" height="1" fill="#FD5851" />
<rect x="61" y="39" width="4" height="1" fill="#FD5751" />
<rect x="65" y="39" width="7" height="1" fill="#FD5752" />
<rect x="0" y="40" width="31" height="1" fill="#FD5852" />
<rect x="31" y="40" width="8" height="1" fill="#FD5851" />
<rect x="39" y="40" width="4" height="1" fill="#FD5850" />
<rect x="43" y="40" width="6" height="1" fill="#FD5950" />
<rect x="49" y="40" width="6" height="1" fill="#FD5A50" />
<rect x="55" y="40" width="6" height="1" fill="#FD5950" />
<rect x="61" y="40" width="4" height="1" fill="#FD5850" />
<rect x="65" y="40" width="7" height="1" fill="#FD5851" />
<rect x="0" y="41" width="35" height="1" fill="#FD5A50" />
<rect x="35" y="41" width="8" height="1" fill="#FD5A4F" />
<rect x="43" y="41" width="6" height="1" fill="#FD5B4F" />
<rect x="49" y="41" width="6" height="1" fill="#FD5C4F" />
<rect x="55" y="41" width="6" height="1" fill="#FD5B4F" />
<rect x="61" y="41" width="8" height="1" fill="#FD5A4F" />
<rect x="69" y="41" width="3" height="1" fill="#FD5A50" />
<rect x="0" y="42" width="35" height="1" fill="#FD5B4F" />
<rect x="35" y="42" width="8" height="1" fill="#FD5B4E" />
<rect x="43" y="42" width="6" height="1" fill="#FD5C4E" />
<rect x="49" y="42" width="6" height="1" fill="#FD5D4E" />
<rect x="55" y="42" width="6" height="1" fill="#FD5C4E" />
<rect x="61" y="42" width="8" height="1" fill="#FD5B4E" />
<rect x="69" y="42" width="3" height="1" fill="#FD5B4F" />
<rect x="0" y="43" width="23" height="1" fill="#FC5E4D" />
<rect x="23" y="43" width="7" height="1" fill="#FC5E4C" />
<rect x="30" y="43" width="15" height="1" fill="#FC5F4C" />
<rect x="45" y="43" width="14" height="1" fill="#FC604C" />
<rect x="59" y="43" width="13" height="1" fill="#FC5F4C" />
<rect x="0" y="44" width="22" height="1" fill="#FC604C" />
<rect x="22" y="44" width="7" height="1" fill="#FC604B" />
<rect x="29" y="44" width="16" height="1" fill="#FC614B" />
<rect x="45" y="44" width="14" height="1" fill="#FC624B" />
<rect x="59" y="44" width="13" height="1" fill="#FC614B" />
<rect x="0" y="45" width="19" height="1" fill="#FC6549" />
<rect x="19" y="45" width="3" height="1" fill="#FB6549" />
<rect x="22" y="45" width="8" height="1" fill="#FB6548" />
<rect x="30" y="45" width="42" height="1" fill="#FB6648" />
<rect x="0" y="46" width="19" height="1" fill="#FC6748" />
<rect x="19" y="46" width="1" height="1" fill="#FB6748" />
<rect x="20" y="46" width="8" height="1" fill="#FB6747" />
<rect x="28" y="46" width="44" height="1" fill="#FB6847" />
<rect x="0" y="47" width="20" height="1" fill="#FB6D44" />
<rect x="20" y="47" width="3" height="1" fill="#FA6D44" />
<rect x="23" y="47" width="4" height="1" fill="#FA6D43" />
<rect x="27" y="47" width="10" height="1" fill="#FA6E43" />
<rect x="37" y="47" width="14" height="1" fill="#FA6F43" />
<rect x="51" y="47" width="21" height="1" fill="#FA6E43" />
<rect x="0" y="48" width="23" height="1" fill="#FA7142" />
<rect x="23" y="48" width="5" height="1" fill="#FA7141" />
<rect x="28" y="48" width="9" height="1" fill="#FA7241" />
<rect x="37" y="48" width="14" height="1" fill="#FA7341" />
<rect x="51" y="48" width="15" height="1" fill="#FA7241" />
<rect x="66" y="48" width="6" height="1" fill="#FA7141" />
<rect x="0" y="49" width="23" height="1" fill="#F9783E" />
<rect x="23" y="49" width="5" height="1" fill="#F9783D" />
<rect x="28" y="49" width="8" height="1" fill="#F9793D" />
<rect x="36" y="49" width="16" height="1" fill="#F97A3D" />
<rect x="52" y="49" width="13" height="1" fill="#F9793D" />
<rect x="65" y="49" width="7" height="1" fill="#F9783D" />
<rect x="0" y="50" width="23" height="1" fill="#F97B3C" />
<rect x="23" y="50" width="4" height="1" fill="#F97B3B" />
<rect x="27" y="50" width="7" height="1" fill="#F97C3B" />
<rect x="34" y="50" width="20" height="1" fill="#F97D3B" />
<rect x="54" y="50" width="11" height="1" fill="#F97C3B" />
<rect x="65" y="50" width="7" height="1" fill="#F97B3B" />
<rect x="0" y="51" width="24" height="1" fill="#F88337" />
<rect x="24" y="51" width="4" height="1" fill="#F88336" />
<rect x="28" y="51" width="6" height="1" fill="#F88436" />
<rect x="34" y="51" width="20" height="1" fill="#F88536" />
<rect x="54" y="51" width="10" height="1" fill="#F88436" />
<rect x="64" y="51" width="8" height="1" fill="#F88336" />
<rect x="0" y="52" width="16" height="1" fill="#F78734" />
<rect x="16" y="52" width="10" height="1" fill="#F78834" />
<rect x="26" y="52" width="6" height="1" fill="#F78833" />
<rect x="32" y="52" width="24" height="1" fill="#F78933" />
<rect x="56" y="52" width="9" height="1" fill="#F78833" />
<rect x="65" y="52" width="7" height="1" fill="#F78733" />
<rect x="0" y="53" width="9" height="1" fill="#F68F30" />
<rect x="9" y="53" width="6" height="1" fill="#F68F2F" />
<rect x="15" y="53" width="16" height="1" fill="#F6902F" />
<rect x="31" y="53" width="26" height="1" fill="#F6912F" />
<rect x="57" y="53" width="8" height="1" fill="#F6902F" />
<rect x="65" y="53" width="7" height="1" fill="#F68F2F" />
<rect x="0" y="54" width="9" height="1" fill="#F6932E" />
<rect x="9" y="54" width="6" height="1" fill="#F6932D" />
<rect x="15" y="54" width="16" height="1" fill="#F6942D" />
<rect x="31" y="54" width="26" height="1" fill="#F6952D" />
<rect x="57" y="54" width="7" height="1" fill="#F6942D" />
<rect x="64" y="54" width="8" height="1" fill="#F6932D" />
<rect x="0" y="55" width="10" height="1" fill="#F59B29" />
<rect x="10" y="55" width="3" height="1" fill="#F59B28" />
<rect x="13" y="55" width="16" height="1" fill="#F59C28" />
<rect x="29" y="55" width="29" height="1" fill="#F59D28" />
<rect x="58" y="55" width="6" height="1" fill="#F59C28" />
<rect x="64" y="55" width="8" height="1" fill="#F59B28" />
<rect x="0" y="56" width="11" height="1" fill="#F4A026" />
<rect x="11" y="56" width="3" height="1" fill="#F4A025" />
<rect x="14" y="56" width="16" height="1" fill="#F4A125" />
<rect x="30" y="56" width="26" height="1" fill="#F4A225" />
<rect x="56" y="56" width="6" height="1" fill="#F4A125" />
<rect x="62" y="56" width="4" height="1" fill="#F4A025" />
<rect x="66" y="56" width="2" height="1" fill="#F49F25" />
<rect x="68" y="56" width="4" height="1" fill="#F49F26" />
<rect x="0" y="57" width="7" height="1" fill="#F3A822" />
<rect x="7" y="57" width="6" height="1" fill="#F3A821" />
<rect x="13" y="57" width="17" height="1" fill="#F3A921" />
<rect x="30" y="57" width="26" height="1" fill="#F3AA21" />
<rect x="56" y="57" width="6" height="1" fill="#F3A921" />
<rect x="62" y="57" width="5" height="1" fill="#F3A821" />
<rect x="67" y="57" width="2" height="1" fill="#F3A721" />
<rect x="69" y="57" width="3" height="1" fill="#F3A722" />
<rect x="0" y="58" width="7" height="1" fill="#F3AC20" />
<rect x="7" y="58" width="7" height="1" fill="#F3AC1F" />
<rect x="14" y="58" width="18" height="1" fill="#F3AD1F" />
<rect x="32" y="58" width="22" height="1" fill="#F3AE1F" />
<rect x="54" y="58" width="6" height="1" fill="#F3AD1F" />
<rect x="60" y="58" width="6" height="1" fill="#F3AC1F" />
<rect x="66" y="58" width="3" height="1" fill="#F3AB1F" />
<rect x="69" y="58" width="3" height="1" fill="#F3AB20" />
<rect x="0" y="59" width="9" height="1" fill="#F2B41B" />
<rect x="9" y="59" width="5" height="1" fill="#F2B41A" />
<rect x="14" y="59" width="19" height="1" fill="#F2B51A" />
<rect x="33" y="59" width="20" height="1" fill="#F2B61A" />
<rect x="53" y="59" width="6" height="1" fill="#F2B51A" />
<rect x="59" y="59" width="6" height="1" fill="#F2B41A" />
<rect x="65" y="59" width="3" height="1" fill="#F2B31A" />
<rect x="68" y="59" width="4" height="1" fill="#F2B31B" />
<rect x="0" y="60" width="8" height="1" fill="#F1B819" />
<rect x="8" y="60" width="5" height="1" fill="#F1B818" />
<rect x="13" y="60" width="20" height="1" fill="#F1B918" />
<rect x="33" y="60" width="20" height="1" fill="#F1BA18" />
<rect x="53" y="60" width="6" height="1" fill="#F1B918" />
<rect x="59" y="60" width="6" height="1" fill="#F1B818" />
<rect x="65" y="60" width="5" height="1" fill="#F1B718" />
<rect x="70" y="60" width="2" height="1" fill="#F1B719" />
<rect x="0" y="61" width="7" height="1" fill="#F0C015" />
<rect x="7" y="61" width="8" height="1" fill="#F0C014" />
<rect x="15" y="61" width="42" height="1" fill="#F0C114" />
<rect x="57" y="61" width="6" height="1" fill="#F0C014" />
<rect x="63" y="61" width="8" height="1" fill="#F0BF14" />
<rect x="71" y="61" width="1" height="1" fill="#F0BF15" />
<rect x="0" y="62" width="7" height="1" fill="#F0C313" />
<rect x="7" y="62" width="8" height="1" fill="#F0C312" />
<rect x="15" y="62" width="42" height="1" fill="#F0C412" />
<rect x="57" y="62" width="6" height="1" fill="#F0C312" />
<rect x="63" y="62" width="8" height="1" fill="#F0C212" />
<rect x="71" y="62" width="1" height="1" fill="#F0C213" />
<rect x="0" y="63" width="5" height="1" fill="#EFCA10" />
<rect x="5" y="63" width="13" height="1" fill="#EFCA0F" />
<rect x="18" y="63" width="36" height="1" fill="#EFCB0F" />
<rect x="54" y="63" width="8" height="1" fill="#EFCA0F" />
<rect x="62" y="63" width="6" height="1" fill="#EFC90F" />
<rect x="68" y="63" width="4" height="1" fill="#EFC80F" />
<rect x="0" y="64" width="5" height="1" fill="#EFCE0E" />
<rect x="5" y="64" width="15" height="1" fill="#EFCE0D" />
<rect x="20" y="64" width="32" height="1" fill="#EFCF0D" />
<rect x="52" y="64" width="8" height="1" fill="#EFCE0D" />
<rect x="60" y="64" width="4" height="1" fill="#EFCD0D" />
<rect x="64" y="64" width="6" height="1" fill="#EFCC0D" />
<rect x="70" y="64" width="2" height="1" fill="#EFCB0D" />
<rect x="0" y="65" width="20" height="1" fill="#EED40A" />
<rect x="20" y="65" width="32" height="1" fill="#EED50A" />
<rect x="52" y="65" width="8" height="1" fill="#EED40A" />
<rect x="60" y="65" width="4" height="1" fill="#EED30A" />
<rect x="64" y="65" width="6" height="1" fill="#EED20A" />
<rect x="70" y="65" width="2" height="1" fill="#EED10A" />
<rect x="0" y="66" width="19" height="1" fill="#EED609" />
<rect x="19" y="66" width="34" height="1" fill="#EED709" />
<rect x="53" y="66" width="8" height="1" fill="#EED609" />
<rect x="61" y="66" width="4" height="1" fill="#EED509" />
<rect x="65" y="66" width="6" height="1" fill="#EED409" />
<rect x="71" y="66" width="1" height="1" fill="#EED309" />
<rect x="0" y="67" width="21" height="1" fill="#EEDB06" />
<rect x="21" y="67" width="30" height="1" fill="#EEDC06" />
<rect x="51" y="67" width="8" height="1" fill="#EEDB06" />
<rect x="59" y="67" width="5" height="1" fill="#EEDA06" />
<rect x="64" y="67" width="6" height="1" fill="#EED906" />
<rect x="70" y="67" width="2" height="1" fill="#EED806" />
<rect x="0" y="68" width="21" height="1" fill="#EEDD05" />
<rect x="21" y="68" width="30" height="1" fill="#EEDE05" />
<rect x="51" y="68" width="8" height="1" fill="#EEDD05" />
<rect x="59" y="68" width="6" height="1" fill="#EEDC05" />
<rect x="65" y="68" width="7" height="1" fill="#EEDB05" />
<rect x="0" y="69" width="57" height="1" fill="#EEE103" />
<rect x="57" y="69" width="7" height="1" fill="#EEE003" />
<rect x="64" y="69" width="8" height="1" fill="#EEDF03" />
<rect x="0" y="70" width="57" height="1" fill="#EEE202" />
<rect x="57" y="70" width="8" height="1" fill="#EEE102" />
<rect x="65" y="70" width="7" height="1" fill="#EEE002" />
<rect x="0" y="71" width="55" height="1" fill="#EEE501" />
<rect x="55" y="71" width="8" height="1" fill="#EEE401" />
<rect x="63" y="71" width="9" height="1" fill="#EEE301" />
<rect x="0" y="72" width="55" height="1" fill="#EEE601" />
<rect x="55" y="72" width="8" height="1" fill="#EEE501" />
<rect x="63" y="72" width="9" height="1" fill="#EEE401" />
<rect x="0" y="73" width="52" height="2" fill="#EEE800" />
<rect x="52" y="73" width="8" height="1" fill="#EEE700" />
<rect x="60" y="73" width="12" height="1" fill="#EEE600" />
<rect x="52" y="74" width="2" height="1" fill="#EEE800" />
<rect x="54" y="74" width="8" height="1" fill="#EEE700" />
<rect x="62" y="74" width="10" height="1" fill="#EEE600" />
<rect x="0" y="75" width="53" height="1" fill="#EEE900" />
<rect x="53" y="75" width="8" height="1" fill="#EEE800" />
<rect x="61" y="75" width="11" height="1" fill="#EEE700" />
</svg>