<?xml version="1.0" encoding="UTF-8" ?>
<svg version="1.1" width="16" height="16" xmlns="http://www.w3.org/2000/svg" shape-rendering="crispEdges">
<rect x="3" y="2" width="2" height="1" fill="#03A5AE" />
<rect x="5" y="2" width="1" height="1" fill="#FFFFFF" opacity="0.050980" />
<rect x="6" y="2" width="1" height="1" fill="#FFFFFF" opacity="0.090196" />
<rect x="7" y="2" width="2" height="1" fill="#FFFFFF" opacity="0.109804" />
<rect x="9" y="2" width="1" height="1" fill="#FFFFFF" opacity="0.090196" />
<rect x="10" y="2" width="1" height="1" fill="#FFFFFF" opacity="0.050980" />
<rect x="11" y="2" width="2" height="1" fill="#03A5AE" />
<rect x="2" y="3" width="1" height="3" fill="#03A5AE" />
<rect x="3" y="3" width="2" height="1" fill="#07E2EC" />
<rect x="5" y="3" width="1" height="1" fill="#000000" />
<rect x="6" y="3" width="1" height="1" fill="#FFFFFF" opacity="0.200000" />
<rect x="7" y="3" width="2" height="1" fill="#FFFFFF" opacity="0.227451" />
<rect x="9" y="3" width="1" height="1" fill="#FFFFFF" opacity="0.200000" />
<rect x="10" y="3" width="1" height="1" fill="#000000" />
<rect x="11" y="3" width="2" height="1" fill="#07E2EC" />
<rect x="13" y="3" width="1" height="3" fill="#03A5AE" />
<rect x="3" y="4" width="1" height="1" fill="#07E2EC" />
<rect x="4" y="4" width="1" height="1" fill="#000000" />
<rect x="5" y="4" width="1" height="1" fill="#CA0000" />
<rect x="6" y="4" width="4" height="1" fill="#03A5AE" />
<rect x="10" y="4" width="1" height="1" fill="#CA0000" />
<rect x="11" y="4" width="1" height="1" fill="#000000" />
<rect x="12" y="4" width="1" height="1" fill="#07E2EC" />
<rect x="1" y="5" width="1" height="7" fill="#017EA1" />
<rect x="3" y="5" width="1" height="1" fill="#000000" />
<rect x="4" y="5" width="1" height="1" fill="#CA0000" />
<rect x="5" y="5" width="6" height="2" fill="#07E2EC" />
<rect x="11" y="5" width="1" height="1" fill="#CA0000" />
<rect x="12" y="5" width="1" height="1" fill="#000000" />
<rect x="14" y="5" width="1" height="7" fill="#017EA1" />
<rect x="2" y="6" width="2" height="2" fill="#2D7888" />
<rect x="4" y="6" width="1" height="3" fill="#03A5AE" />
<rect x="11" y="6" width="1" height="3" fill="#03A5AE" />
<rect x="12" y="6" width="2" height="2" fill="#2D7888" />
<rect x="5" y="7" width="1" height="1" fill="#07E2EC" />
<rect x="6" y="7" width="1" height="4" fill="#F9E3D3" />
<rect x="7" y="7" width="2" height="1" fill="#07E2EC" />
<rect x="9" y="7" width="1" height="4" fill="#F9E3D3" />
<rect x="10" y="7" width="1" height="1" fill="#07E2EC" />
<rect x="2" y="8" width="1" height="6" fill="#2D7888" />
<rect x="3" y="8" width="1" height="5" fill="#035963" />
<rect x="5" y="8" width="1" height="2" fill="#F9E3D3" />
<rect x="7" y="8" width="2" height="3" fill="#F9E3D3" />
<rect x="10" y="8" width="1" height="2" fill="#F9E3D3" />
<rect x="12" y="8" width="1" height="5" fill="#035963" />
<rect x="13" y="8" width="1" height="6" fill="#2D7888" />
<rect x="4" y="9" width="1" height="1" fill="#D5A57A" />
<rect x="11" y="9" width="1" height="1" fill="#D5A57A" />
<rect x="4" y="10" width="1" height="1" fill="#035963" />
<rect x="5" y="10" width="1" height="1" fill="#D5A57A" />
<rect x="10" y="10" width="1" height="1" fill="#D5A57A" />
<rect x="11" y="10" width="1" height="1" fill="#035963" />
<rect x="4" y="11" width="1" height="1" fill="#FFFFFF" opacity="0.176471" />
<rect x="5" y="11" width="1" height="1" fill="#FFFFFF" opacity="0.250980" />
<rect x="6" y="11" width="4" height="1" fill="#D5A57A" />
<rect x="10" y="11" width="1" height="1" fill="#FFFFFF" opacity="0.250980" />
<rect x="11" y="11" width="1" height="1" fill="#FFFFFF" opacity="0.176471" />
<rect x="4" y="12" width="1" height="1" fill="#FFFFFF" opacity="0.090196" />
<rect x="5" y="12" width="1" height="1" fill="#FFFFFF" opacity="0.152941" />
<rect x="6" y="12" width="1" height="1" fill="#FFFFFF" opacity="0.200000" />
<rect x="7" y="12" width="2" height="1" fill="#FFFFFF" opacity="0.227451" />
<rect x="9" y="12" width="1" height="1" fill="#FFFFFF" opacity="0.200000" />
<rect x="10" y="12" width="1" height="1" fill="#FFFFFF" opacity="0.152941" />
<rect x="11" y="12" width="1" height="1" fill="#FFFFFF" opacity="0.090196" />
<rect x="5" y="13" width="1" height="1" fill="#FFFFFF" opacity="0.050980" />
<rect x="6" y="13" width="1" height="1" fill="#FFFFFF" opacity="0.090196" />
<rect x="7" y="13" width="2" height="1" fill="#FFFFFF" opacity="0.109804" />
<rect x="9" y="13" width="1" height="1" fill="#FFFFFF" opacity="0.090196" />
<rect x="10" y="13" width="1" height="1" fill="#FFFFFF" opacity="0.050980" />
<rect x="2" y="14" width="1" height="1" fill="#035963" />
<rect x="13" y="14" width="1" height="1" fill="#035963" />
</svg>