<?xml version="1.0" encoding="UTF-8" ?>
<svg version="1.1" width="16" height="16" xmlns="http://www.w3.org/2000/svg" shape-rendering="crispEdges">
<rect x="4" y="0" width="1" height="1" fill="#DAC316" opacity="0.019608" />
<rect x="5" y="0" width="1" height="1" fill="#DAC316" opacity="0.050980" />
<rect x="6" y="0" width="1" height="1" fill="#DAC316" opacity="0.074510" />
<rect x="7" y="0" width="2" height="1" fill="#DAC316" opacity="0.086275" />
<rect x="9" y="0" width="1" height="1" fill="#DAC316" opacity="0.074510" />
<rect x="10" y="0" width="1" height="1" fill="#DAC316" opacity="0.050980" />
<rect x="11" y="0" width="1" height="1" fill="#DAC316" opacity="0.019608" />
<rect x="3" y="1" width="2" height="1" fill="#808080" />
<rect x="5" y="1" width="1" height="1" fill="#DAC316" opacity="0.133333" />
<rect x="6" y="1" width="1" height="1" fill="#DAC316" opacity="0.160784" />
<rect x="7" y="1" width="2" height="1" fill="#DAC316" opacity="0.172549" />
<rect x="9" y="1" width="1" height="1" fill="#DAC316" opacity="0.160784" />
<rect x="10" y="1" width="1" height="1" fill="#DAC316" opacity="0.133333" />
<rect x="11" y="1" width="1" height="1" fill="#DAC316" opacity="0.098039" />
<rect x="12" y="1" width="1" height="1" fill="#DAC316" opacity="0.050980" />
<rect x="2" y="2" width="1" height="1" fill="#808080" />
<rect x="3" y="2" width="2" height="1" fill="#8A6F30" />
<rect x="5" y="2" width="1" height="1" fill="#808080" />
<rect x="6" y="2" width="1" height="1" fill="#DAC316" opacity="0.247059" />
<rect x="7" y="2" width="2" height="1" fill="#DAC316" opacity="0.262745" />
<rect x="9" y="2" width="1" height="1" fill="#DAC316" opacity="0.247059" />
<rect x="10" y="2" width="1" height="1" fill="#DAC316" opacity="0.215686" />
<rect x="11" y="2" width="1" height="1" fill="#DAC316" opacity="0.172549" />
<rect x="12" y="2" width="1" height="1" fill="#DAC316" opacity="0.121569" />
<rect x="13" y="2" width="1" height="1" fill="#DAC316" opacity="0.062745" />
<rect x="1" y="3" width="1" height="2" fill="#808080" />
<rect x="2" y="3" width="1" height="3" fill="#8A6F30" />
<rect x="3" y="3" width="2" height="1" fill="#D1B22C" />
<rect x="5" y="3" width="1" height="1" fill="#03A5AE" />
<rect x="6" y="3" width="4" height="1" fill="#808080" />
<rect x="10" y="3" width="1" height="1" fill="#DAC316" opacity="0.294118" />
<rect x="11" y="3" width="1" height="1" fill="#DAC316" opacity="0.247059" />
<rect x="12" y="3" width="1" height="1" fill="#DAC316" opacity="0.188235" />
<rect x="13" y="3" width="1" height="1" fill="#DAC316" opacity="0.121569" />
<rect x="14" y="3" width="1" height="1" fill="#DAC316" opacity="0.050980" />
<rect x="0" y="4" width="1" height="1" fill="#DAC316" opacity="0.019608" />
<rect x="3" y="4" width="1" height="1" fill="#D1B22C" />
<rect x="4" y="4" width="1" height="1" fill="#03A5AE" />
<rect x="5" y="4" width="1" height="1" fill="#017EA1" />
<rect x="6" y="4" width="4" height="1" fill="#8A6F30" />
<rect x="10" y="4" width="1" height="1" fill="#808080" />
<rect x="11" y="4" width="1" height="1" fill="#DAC316" opacity="0.313725" />
<rect x="12" y="4" width="1" height="1" fill="#DAC316" opacity="0.247059" />
<rect x="13" y="4" width="1" height="1" fill="#DAC316" opacity="0.172549" />
<rect x="14" y="4" width="1" height="1" fill="#DAC316" opacity="0.098039" />
<rect x="15" y="4" width="1" height="1" fill="#DAC316" opacity="0.019608" />
<rect x="0" y="5" width="1" height="7" fill="#808080" />
<rect x="1" y="5" width="1" height="7" fill="#FFC31B" />
<rect x="3" y="5" width="1" height="1" fill="#03A5AE" />
<rect x="4" y="5" width="1" height="1" fill="#017EA1" />
<rect x="5" y="5" width="5" height="2" fill="#D1B22C" />
<rect x="10" y="5" width="1" height="1" fill="#8A6F30" />
<rect x="11" y="5" width="1" height="1" fill="#808080" />
<rect x="12" y="5" width="1" height="1" fill="#DAC316" opacity="0.294118" />
<rect x="13" y="5" width="1" height="1" fill="#DAC316" opacity="0.215686" />
<rect x="14" y="5" width="1" height="1" fill="#DAC316" opacity="0.133333" />
<rect x="15" y="5" width="1" height="1" fill="#DAC316" opacity="0.050980" />
<rect x="2" y="6" width="2" height="2" fill="#D5AA0E" />
<rect x="4" y="6" width="1" height="3" fill="#8A6F30" />
<rect x="10" y="6" width="1" height="2" fill="#D1B22C" />
<rect x="11" y="6" width="1" height="3" fill="#8A6F30" />
<rect x="12" y="6" width="1" height="4" fill="#808080" />
<rect x="13" y="6" width="1" height="1" fill="#DAC316" opacity="0.247059" />
<rect x="14" y="6" width="1" height="1" fill="#DAC316" opacity="0.160784" />
<rect x="15" y="6" width="1" height="1" fill="#DAC316" opacity="0.074510" />
<rect x="5" y="7" width="1" height="1" fill="#D1B22C" />
<rect x="6" y="7" width="1" height="4" fill="#F9E3D3" />
<rect x="7" y="7" width="2" height="1" fill="#D1B22C" />
<rect x="9" y="7" width="1" height="4" fill="#F9E3D3" />
<rect x="13" y="7" width="1" height="2" fill="#DAC316" opacity="0.262745" />
<rect x="14" y="7" width="1" height="2" fill="#DAC316" opacity="0.172549" />
<rect x="15" y="7" width="1" height="2" fill="#DAC316" opacity="0.086275" />
<rect x="2" y="8" width="1" height="6" fill="#D5AA0E" />
<rect x="3" y="8" width="1" height="5" fill="#D68C02" />
<rect x="5" y="8" width="1" height="2" fill="#F9E3D3" />
<rect x="7" y="8" width="2" height="3" fill="#F9E3D3" />
<rect x="10" y="8" width="1" height="2" fill="#F9E3D3" />
<rect x="4" y="9" width="1" height="1" fill="#D5A57A" />
<rect x="11" y="9" width="1" height="1" fill="#D5A57A" />
<rect x="13" y="9" width="1" height="1" fill="#DAC316" opacity="0.247059" />
<rect x="14" y="9" width="1" height="1" fill="#DAC316" opacity="0.160784" />
<rect x="15" y="9" width="1" height="1" fill="#DAC316" opacity="0.074510" />
<rect x="4" y="10" width="1" height="1" fill="#D68C02" />
<rect x="5" y="10" width="1" height="1" fill="#D5A57A" />
<rect x="10" y="10" width="1" height="1" fill="#D5A57A" />
<rect x="11" y="10" width="1" height="1" fill="#808080" />
<rect x="12" y="10" width="1" height="1" fill="#DAC316" opacity="0.294118" />
<rect x="13" y="10" width="1" height="1" fill="#DAC316" opacity="0.215686" />
<rect x="14" y="10" width="1" height="1" fill="#DAC316" opacity="0.133333" />
<rect x="15" y="10" width="1" height="1" fill="#DAC316" opacity="0.050980" />
<rect x="4" y="11" width="2" height="1" fill="#808080" />
<rect x="6" y="11" width="4" height="1" fill="#D5A57A" />
<rect x="10" y="11" width="1" height="1" fill="#808080" />
<rect x="11" y="11" width="1" height="1" fill="#DAC316" opacity="0.313725" />
<rect x="12" y="11" width="1" height="1" fill="#DAC316" opacity="0.247059" />
<rect x="13" y="11" width="1" height="1" fill="#DAC316" opacity="0.172549" />
<rect x="14" y="11" width="1" height="1" fill="#DAC316" opacity="0.098039" />
<rect x="15" y="11" width="1" height="1" fill="#DAC316" opacity="0.019608" />
<rect x="1" y="12" width="1" height="3" fill="#808080" />
<rect x="4" y="12" width="1" height="1" fill="#808080" />
<rect x="5" y="12" width="1" height="1" fill="#DAC316" opacity="0.294118" />
<rect x="6" y="12" width="4" height="1" fill="#808080" />
<rect x="10" y="12" width="1" height="1" fill="#DAC316" opacity="0.294118" />
<rect x="11" y="12" width="1" height="1" fill="#DAC316" opacity="0.247059" />
<rect x="12" y="12" width="1" height="1" fill="#DAC316" opacity="0.188235" />
<rect x="13" y="12" width="1" height="1" fill="#DAC316" opacity="0.121569" />
<rect x="14" y="12" width="1" height="1" fill="#DAC316" opacity="0.050980" />
<rect x="3" y="13" width="1" height="2" fill="#808080" />
<rect x="4" y="13" width="1" height="1" fill="#DAC316" opacity="0.172549" />
<rect x="5" y="13" width="1" height="1" fill="#DAC316" opacity="0.215686" />
<rect x="6" y="13" width="1" height="1" fill="#DAC316" opacity="0.247059" />
<rect x="7" y="13" width="2" height="1" fill="#DAC316" opacity="0.262745" />
<rect x="9" y="13" width="1" height="1" fill="#DAC316" opacity="0.247059" />
<rect x="10" y="13" width="1" height="1" fill="#DAC316" opacity="0.215686" />
<rect x="11" y="13" width="1" height="1" fill="#DAC316" opacity="0.172549" />
<rect x="12" y="13" width="1" height="1" fill="#DAC316" opacity="0.121569" />
<rect x="13" y="13" width="1" height="1" fill="#DAC316" opacity="0.062745" />
<rect x="2" y="14" width="1" height="1" fill="#D68C02" />
<rect x="4" y="14" width="1" height="1" fill="#DAC316" opacity="0.098039" />
<rect x="5" y="14" width="1" height="1" fill="#DAC316" opacity="0.133333" />
<rect x="6" y="14" width="1" height="1" fill="#DAC316" opacity="0.160784" />
<rect x="7" y="14" width="2" height="1" fill="#DAC316" opacity="0.172549" />
<rect x="9" y="14" width="1" height="1" fill="#DAC316" opacity="0.160784" />
<rect x="10" y="14" width="1" height="1" fill="#DAC316" opacity="0.133333" />
<rect x="11" y="14" width="1" height="1" fill="#DAC316" opacity="0.098039" />
<rect x="12" y="14" width="1" height="1" fill="#DAC316" opacity="0.050980" />
<rect x="2" y="15" width="1" height="1" fill="#808080" />
<rect x="4" y="15" width="1" height="1" fill="#DAC316" opacity="0.019608" />
<rect x="5" y="15" width="1" height="1" fill="#DAC316" opacity="0.050980" />
<rect x="6" y="15" width="1" height="1" fill="#DAC316" opacity="0.074510" />
<rect x="7" y="15" width="2" height="1" fill="#DAC316" opacity="0.086275" />
<rect x="9" y="15" width="1" height="1" fill="#DAC316" opacity="0.074510" />
<rect x="10" y="15" width="1" height="1" fill="#DAC316" opacity="0.050980" />
<rect x="11" y="15" width="1" height="1" fill="#DAC316" opacity="0.019608" />
</svg>