<?xml version="1.0" encoding="UTF-8" ?>
<svg version="1.1" width="16" height="16" xmlns="http://www.w3.org/2000/svg" shape-rendering="crispEdges">
<rect x="6" y="1" width="4" height="1" fill="#000000" />
<rect x="5" y="2" width="1" height="1" fill="#000000" />
<rect x="6" y="2" width="4" height="1" fill="#9D55AD" />
<rect x="10" y="2" width="2" height="1" fill="#000000" />
<rect x="4" y="3" width="1" height="1" fill="#000000" />
<rect x="5" y="3" width="1" height="1" fill="#9D55AD" />
<rect x="6" y="3" width="3" height="1" fill="#8F4E9E" />
<rect x="9" y="3" width="3" height="1" fill="#9D55AD" />
<rect x="12" y="3" width="1" height="1" fill="#000000" />
<rect x="3" y="4" width="1" height="1" fill="#000000" />
<rect x="4" y="4" width="2" height="1" fill="#8F4E9E" />
<rect x="6" y="4" width="1" height="3" fill="#8F3E9E" />
<rect x="7" y="4" width="3" height="1" fill="#8F4E9E" />
<rect x="10" y="4" width="3" height="1" fill="#9D55AD" />
<rect x="13" y="4" width="1" height="9" fill="#000000" />
<rect x="2" y="5" width="1" height="1" fill="#000000" />
<rect x="3" y="5" width="2" height="1" fill="#8F4E9E" />
<rect x="5" y="5" width="1" height="1" fill="#8F3E9E" />
<rect x="7" y="5" width="2" height="2" fill="#8F3E9E" />
<rect x="9" y="5" width="2" height="1" fill="#8F4E9E" />
<rect x="11" y="5" width="2" height="1" fill="#9D55AD" />
<rect x="1" y="6" width="1" height="9" fill="#000000" />
<rect x="2" y="6" width="2" height="1" fill="#8F4E9E" />
<rect x="4" y="6" width="1" height="1" fill="#8F3E9E" />
<rect x="5" y="6" width="1" height="2" fill="#FFBBA4" />
<rect x="9" y="6" width="2" height="1" fill="#8F3E9E" />
<rect x="11" y="6" width="1" height="1" fill="#8F4E9E" />
<rect x="12" y="6" width="1" height="1" fill="#9D55AD" />
<rect x="2" y="7" width="1" height="3" fill="#8F4E9E" />
<rect x="3" y="7" width="1" height="2" fill="#8F3E9E" />
<rect x="4" y="7" width="1" height="3" fill="#FFBBA4" />
<rect x="6" y="7" width="1" height="2" fill="#FFBBA4" />
<rect x="7" y="7" width="1" height="1" fill="#8F3E9E" />
<rect x="8" y="7" width="2" height="1" fill="#FFBBA4" />
<rect x="10" y="7" width="2" height="1" fill="#9975E9" />
<rect x="12" y="7" width="1" height="3" fill="#8F4E9E" />
<rect x="5" y="8" width="1" height="1" fill="#F5F6F3" />
<rect x="7" y="8" width="1" height="3" fill="#FFBBA4" />
<rect x="8" y="8" width="1" height="1" fill="#F5F6F3" />
<rect x="9" y="8" width="1" height="1" fill="#FFBBA4" />
<rect x="10" y="8" width="1" height="6" fill="#8F3E9E" />
<rect x="11" y="8" width="1" height="5" fill="#8F4E9E" />
<rect x="3" y="9" width="1" height="2" fill="#992C11" />
<rect x="5" y="9" width="1" height="1" fill="#822676" />
<rect x="6" y="9" width="1" height="1" fill="#CAD2D4" />
<rect x="8" y="9" width="1" height="1" fill="#822676" />
<rect x="9" y="9" width="1" height="1" fill="#CAD2D4" />
<rect x="2" y="10" width="1" height="5" fill="#8F3E9E" />
<rect x="4" y="10" width="3" height="1" fill="#FFDFD5" />
<rect x="8" y="10" width="2" height="1" fill="#FFBBA4" />
<rect x="12" y="10" width="1" height="6" fill="#752269" />
<rect x="3" y="11" width="1" height="2" fill="#8F3E9E" />
<rect x="4" y="11" width="1" height="1" fill="#992C11" />
<rect x="5" y="11" width="5" height="1" fill="#FFDFD5" />
<rect x="4" y="12" width="1" height="4" fill="#752269" />
<rect x="5" y="12" width="5" height="1" fill="#992C11" />
<rect x="3" y="13" width="1" height="3" fill="#752269" />
<rect x="5" y="13" width="5" height="3" fill="#752269" />
<rect x="11" y="13" width="1" height="3" fill="#8F3E9E" />
<rect x="13" y="13" width="1" height="3" fill="#752269" />
<rect x="14" y="13" width="1" height="3" fill="#000000" />
<rect x="10" y="14" width="1" height="2" fill="#752269" />
<rect x="2" y="15" width="1" height="1" fill="#000000" />
</svg>