<?xml version="1.0" encoding="UTF-8" ?>
<svg version="1.1" width="32" height="32" xmlns="http://www.w3.org/2000/svg" shape-rendering="crispEdges">
<rect x="3" y="2" width="13" height="1" fill="#000000" />
<rect x="21" y="2" width="8" height="1" fill="#000000" />
<rect x="2" y="3" width="1" height="19" fill="#000000" />
<rect x="3" y="3" width="1" height="1" fill="#020002" />
<rect x="4" y="3" width="1" height="1" fill="#130213" />
<rect x="5" y="3" width="2" height="1" fill="#1D031D" />
<rect x="7" y="3" width="1" height="1" fill="#1B031B" />
<rect x="8" y="3" width="1" height="1" fill="#090109" />
<rect x="9" y="3" width="1" height="1" fill="#010001" />
<rect x="10" y="3" width="1" height="1" fill="#150215" />
<rect x="11" y="3" width="4" height="1" fill="#1D031D" />
<rect x="15" y="3" width="1" height="1" fill="#1C031C" />
<rect x="16" y="3" width="1" height="21" fill="#000000" />
<rect x="20" y="3" width="1" height="1" fill="#000000" />
<rect x="21" y="3" width="1" height="1" fill="#020002" />
<rect x="22" y="3" width="1" height="1" fill="#140214" />
<rect x="23" y="3" width="1" height="1" fill="#210321" />
<rect x="24" y="3" width="1" height="1" fill="#260426" />
<rect x="25" y="3" width="1" height="1" fill="#250425" />
<rect x="26" y="3" width="1" height="1" fill="#1D031D" />
<rect x="27" y="3" width="1" height="1" fill="#0C010C" />
<rect x="28" y="3" width="1" height="1" fill="#010001" />
<rect x="29" y="3" width="1" height="1" fill="#000000" />
<rect x="3" y="4" width="1" height="1" fill="#0E010E" />
<rect x="4" y="4" width="1" height="1" fill="#750D75" />
<rect x="5" y="4" width="2" height="1" fill="#AE14AE" />
<rect x="7" y="4" width="1" height="1" fill="#A513A5" />
<rect x="8" y="4" width="1" height="1" fill="#390639" />
<rect x="9" y="4" width="1" height="1" fill="#0A010A" />
<rect x="10" y="4" width="1" height="1" fill="#850F85" />
<rect x="11" y="4" width="4" height="1" fill="#AE14AE" />
<rect x="15" y="4" width="1" height="1" fill="#AB13AB" />
<rect x="19" y="4" width="1" height="1" fill="#000000" />
<rect x="20" y="4" width="1" height="1" fill="#0F010F" />
<rect x="21" y="4" width="1" height="1" fill="#4B084B" />
<rect x="22" y="4" width="1" height="1" fill="#931193" />
<rect x="23" y="4" width="1" height="1" fill="#BD16BD" />
<rect x="24" y="4" width="1" height="1" fill="#CC17CC" />
<rect x="25" y="4" width="1" height="1" fill="#C917C9" />
<rect x="26" y="4" width="1" height="1" fill="#AE14AE" />
<rect x="27" y="4" width="1" height="1" fill="#7E0E7E" />
<rect x="28" y="4" width="1" height="1" fill="#3A063A" />
<rect x="29" y="4" width="1" height="1" fill="#010001" />
<rect x="30" y="4" width="1" height="2" fill="#000000" />
<rect x="3" y="5" width="1" height="15" fill="#100110" />
<rect x="4" y="5" width="1" height="14" fill="#8A108A" />
<rect x="5" y="5" width="2" height="18" fill="#CE18CE" />
<rect x="7" y="5" width="1" height="15" fill="#C316C3" />
<rect x="8" y="5" width="1" height="15" fill="#430743" />
<rect x="9" y="5" width="1" height="2" fill="#0C010C" />
<rect x="10" y="5" width="1" height="2" fill="#9D129D" />
<rect x="11" y="5" width="4" height="2" fill="#CE18CE" />
<rect x="15" y="5" width="1" height="17" fill="#C917C9" />
<rect x="18" y="5" width="1" height="7" fill="#000000" />
<rect x="19" y="5" width="1" height="1" fill="#0B010B" />
<rect x="20" y="5" width="1" height="1" fill="#680C68" />
<rect x="21" y="5" width="1" height="1" fill="#BE16BE" />
<rect x="22" y="5" width="5" height="1" fill="#CE18CE" />
<rect x="27" y="5" width="1" height="1" fill="#CD17CD" />
<rect x="28" y="5" width="1" height="1" fill="#B214B2" />
<rect x="29" y="5" width="1" height="1" fill="#440844" />
<rect x="31" y="5" width="1" height="8" fill="#000000" />
<rect x="19" y="6" width="1" height="1" fill="#3F073F" />
<rect x="20" y="6" width="1" height="1" fill="#C516C5" />
<rect x="21" y="6" width="2" height="1" fill="#CE18CE" />
<rect x="23" y="6" width="1" height="1" fill="#CD17CD" />
<rect x="24" y="6" width="1" height="1" fill="#C516C5" />
<rect x="25" y="6" width="1" height="1" fill="#C717C7" />
<rect x="26" y="6" width="3" height="1" fill="#CE18CE" />
<rect x="29" y="6" width="1" height="1" fill="#A613A6" />
<rect x="30" y="6" width="1" height="1" fill="#260426" />
<rect x="9" y="7" width="1" height="1" fill="#0A010A" />
<rect x="10" y="7" width="1" height="1" fill="#820F82" />
<rect x="11" y="7" width="1" height="1" fill="#B815B8" />
<rect x="12" y="7" width="1" height="1" fill="#CB17CB" />
<rect x="13" y="7" width="2" height="15" fill="#CE18CE" />
<rect x="19" y="7" width="1" height="1" fill="#7D0E7D" />
<rect x="20" y="7" width="2" height="2" fill="#CE18CE" />
<rect x="22" y="7" width="1" height="1" fill="#CD17CD" />
<rect x="23" y="7" width="1" height="1" fill="#AC14AC" />
<rect x="24" y="7" width="1" height="1" fill="#5C0A5C" />
<rect x="25" y="7" width="1" height="1" fill="#690C69" />
<rect x="26" y="7" width="1" height="1" fill="#C116C1" />
<rect x="27" y="7" width="2" height="3" fill="#CE18CE" />
<rect x="29" y="7" width="1" height="1" fill="#C116C1" />
<rect x="30" y="7" width="1" height="1" fill="#4B084B" />
<rect x="9" y="8" width="1" height="1" fill="#020002" />
<rect x="10" y="8" width="1" height="1" fill="#210321" />
<rect x="11" y="8" width="1" height="1" fill="#670C67" />
<rect x="12" y="8" width="1" height="1" fill="#C216C2" />
<rect x="19" y="8" width="1" height="1" fill="#8A108A" />
<rect x="22" y="8" width="1" height="1" fill="#C917C9" />
<rect x="23" y="8" width="1" height="1" fill="#6E0C6E" />
<rect x="24" y="8" width="1" height="1" fill="#030003" />
<rect x="25" y="8" width="1" height="1" fill="#0C010C" />
<rect x="26" y="8" width="1" height="1" fill="#941194" />
<rect x="29" y="8" width="1" height="1" fill="#C216C2" />
<rect x="30" y="8" width="1" height="1" fill="#4F094F" />
<rect x="9" y="9" width="2" height="15" fill="#000000" />
<rect x="11" y="9" width="1" height="13" fill="#4B084B" />
<rect x="12" y="9" width="1" height="13" fill="#C016C0" />
<rect x="19" y="9" width="1" height="1" fill="#690C69" />
<rect x="20" y="9" width="1" height="1" fill="#CD17CD" />
<rect x="21" y="9" width="1" height="1" fill="#CE18CE" />
<rect x="22" y="9" width="1" height="1" fill="#CC17CC" />
<rect x="23" y="9" width="1" height="1" fill="#8D108D" />
<rect x="24" y="9" width="1" height="1" fill="#1D031D" />
<rect x="25" y="9" width="1" height="1" fill="#260426" />
<rect x="26" y="9" width="1" height="1" fill="#B014B0" />
<rect x="29" y="9" width="1" height="1" fill="#B414B4" />
<rect x="30" y="9" width="1" height="1" fill="#380638" />
<rect x="19" y="10" width="1" height="1" fill="#210321" />
<rect x="20" y="10" width="1" height="1" fill="#A713A7" />
<rect x="21" y="10" width="1" height="1" fill="#CD17CD" />
<rect x="22" y="10" width="1" height="3" fill="#CE18CE" />
<rect x="23" y="10" width="1" height="1" fill="#CD17CD" />
<rect x="24" y="10" width="1" height="1" fill="#B815B8" />
<rect x="25" y="10" width="1" height="1" fill="#C016C0" />
<rect x="26" y="10" width="2" height="3" fill="#CE18CE" />
<rect x="28" y="10" width="1" height="1" fill="#CA17CA" />
<rect x="29" y="10" width="1" height="1" fill="#710D71" />
<rect x="30" y="10" width="1" height="1" fill="#080108" />
<rect x="19" y="11" width="1" height="1" fill="#0B010B" />
<rect x="20" y="11" width="1" height="1" fill="#750D75" />
<rect x="21" y="11" width="1" height="1" fill="#C917C9" />
<rect x="23" y="11" width="3" height="1" fill="#CE18CE" />
<rect x="28" y="11" width="1" height="1" fill="#C116C1" />
<rect x="29" y="11" width="1" height="1" fill="#2E052E" />
<rect x="30" y="11" width="1" height="1" fill="#000000" />
<rect x="17" y="12" width="1" height="1" fill="#000000" />
<rect x="18" y="12" width="1" height="1" fill="#030003" />
<rect x="19" y="12" width="1" height="1" fill="#670C67" />
<rect x="20" y="12" width="1" height="1" fill="#BD16BD" />
<rect x="21" y="12" width="1" height="1" fill="#CD17CD" />
<rect x="23" y="12" width="1" height="1" fill="#CE18CE" />
<rect x="24" y="12" width="2" height="1" fill="#CD17CD" />
<rect x="28" y="12" width="1" height="1" fill="#CA17CA" />
<rect x="29" y="12" width="1" height="1" fill="#991199" />
<rect x="30" y="12" width="1" height="1" fill="#2B052B" />
<rect x="17" y="13" width="1" height="1" fill="#040004" />
<rect x="18" y="13" width="1" height="1" fill="#5D0A5D" />
<rect x="19" y="13" width="1" height="1" fill="#C917C9" />
<rect x="20" y="13" width="2" height="2" fill="#CE18CE" />
<rect x="22" y="13" width="1" height="1" fill="#C817C8" />
<rect x="23" y="13" width="1" height="1" fill="#A313A3" />
<rect x="24" y="13" width="1" height="1" fill="#830F83" />
<rect x="25" y="13" width="1" height="1" fill="#8A108A" />
<rect x="26" y="13" width="1" height="1" fill="#B214B2" />
<rect x="27" y="13" width="1" height="1" fill="#CC17CC" />
<rect x="28" y="13" width="2" height="2" fill="#CE18CE" />
<rect x="30" y="13" width="1" height="1" fill="#A313A3" />
<rect x="31" y="13" width="1" height="1" fill="#260426" />
<rect x="17" y="14" width="1" height="1" fill="#260426" />
<rect x="18" y="14" width="1" height="1" fill="#A813A8" />
<rect x="19" y="14" width="1" height="5" fill="#CE18CE" />
<rect x="22" y="14" width="1" height="1" fill="#850F85" />
<rect x="23" y="14" width="1" height="1" fill="#1E031E" />
<rect x="24" y="14" width="1" height="1" fill="#010001" />
<rect x="25" y="14" width="1" height="1" fill="#040004" />
<rect x="26" y="14" width="1" height="1" fill="#3C073C" />
<rect x="27" y="14" width="1" height="1" fill="#A713A7" />
<rect x="30" y="14" width="1" height="1" fill="#CD17CD" />
<rect x="31" y="14" width="1" height="1" fill="#750D75" />
<rect x="17" y="15" width="1" height="1" fill="#4F094F" />
<rect x="18" y="15" width="1" height="1" fill="#C316C3" />
<rect x="20" y="15" width="1" height="6" fill="#CE18CE" />
<rect x="21" y="15" width="1" height="1" fill="#C116C1" />
<rect x="22" y="15" width="1" height="1" fill="#210321" />
<rect x="23" y="15" width="3" height="1" fill="#000000" />
<rect x="26" y="15" width="1" height="1" fill="#040004" />
<rect x="27" y="15" width="1" height="1" fill="#600B60" />
<rect x="28" y="15" width="1" height="1" fill="#C516C5" />
<rect x="29" y="15" width="2" height="4" fill="#CE18CE" />
<rect x="31" y="15" width="1" height="1" fill="#B715B7" />
<rect x="17" y="16" width="1" height="1" fill="#640B64" />
<rect x="18" y="16" width="1" height="1" fill="#CE18CE" />
<rect x="21" y="16" width="1" height="1" fill="#A313A3" />
<rect x="22" y="16" width="1" height="1" fill="#0D010D" />
<rect x="23" y="16" width="1" height="3" fill="#000000" />
<rect x="26" y="16" width="1" height="2" fill="#000000" />
<rect x="27" y="16" width="1" height="1" fill="#3B063B" />
<rect x="28" y="16" width="1" height="1" fill="#BA15BA" />
<rect x="31" y="16" width="1" height="1" fill="#CE18CE" />
<rect x="17" y="17" width="1" height="1" fill="#5D0A5D" />
<rect x="18" y="17" width="1" height="1" fill="#CA17CA" />
<rect x="21" y="17" width="1" height="1" fill="#B715B7" />
<rect x="22" y="17" width="1" height="1" fill="#150215" />
<rect x="25" y="17" width="1" height="2" fill="#000000" />
<rect x="27" y="17" width="1" height="1" fill="#530953" />
<rect x="28" y="17" width="1" height="1" fill="#C116C1" />
<rect x="31" y="17" width="1" height="1" fill="#C617C6" />
<rect x="17" y="18" width="1" height="1" fill="#430743" />
<rect x="18" y="18" width="1" height="1" fill="#BC15BC" />
<rect x="21" y="18" width="1" height="1" fill="#CC17CC" />
<rect x="22" y="18" width="1" height="1" fill="#610B61" />
<rect x="24" y="18" width="1" height="1" fill="#000000" />
<rect x="26" y="18" width="1" height="1" fill="#1D031D" />
<rect x="27" y="18" width="1" height="1" fill="#961196" />
<rect x="28" y="18" width="1" height="1" fill="#CC17CC" />
<rect x="31" y="18" width="1" height="1" fill="#9F129F" />
<rect x="4" y="19" width="1" height="1" fill="#8B108B" />
<rect x="17" y="19" width="1" height="1" fill="#100110" />
<rect x="18" y="19" width="1" height="1" fill="#8F108F" />
<rect x="19" y="19" width="1" height="1" fill="#CD17CD" />
<rect x="21" y="19" width="1" height="2" fill="#CE18CE" />
<rect x="22" y="19" width="1" height="1" fill="#C516C5" />
<rect x="23" y="19" width="1" height="1" fill="#891089" />
<rect x="24" y="19" width="1" height="1" fill="#510951" />
<rect x="25" y="19" width="1" height="1" fill="#5E0B5E" />
<rect x="26" y="19" width="1" height="1" fill="#AC14AC" />
<rect x="27" y="19" width="1" height="1" fill="#CC17CC" />
<rect x="28" y="19" width="2" height="1" fill="#CE18CE" />
<rect x="30" y="19" width="1" height="1" fill="#C416C4" />
<rect x="31" y="19" width="1" height="1" fill="#470847" />
<rect x="3" y="20" width="1" height="1" fill="#140214" />
<rect x="4" y="20" width="1" height="1" fill="#931193" />
<rect x="7" y="20" width="1" height="1" fill="#C116C1" />
<rect x="8" y="20" width="1" height="1" fill="#410741" />
<rect x="17" y="20" width="1" height="2" fill="#000000" />
<rect x="18" y="20" width="1" height="1" fill="#2F052F" />
<rect x="19" y="20" width="1" height="1" fill="#B214B2" />
<rect x="22" y="20" width="7" height="1" fill="#CE18CE" />
<rect x="29" y="20" width="1" height="1" fill="#C517C5" />
<rect x="30" y="20" width="1" height="1" fill="#770D77" />
<rect x="31" y="20" width="1" height="1" fill="#100110" />
<rect x="3" y="21" width="1" height="1" fill="#1D031D" />
<rect x="4" y="21" width="1" height="1" fill="#AE14AE" />
<rect x="7" y="21" width="1" height="1" fill="#B715B7" />
<rect x="8" y="21" width="1" height="1" fill="#370637" />
<rect x="18" y="21" width="1" height="2" fill="#000000" />
<rect x="19" y="21" width="1" height="1" fill="#410741" />
<rect x="20" y="21" width="1" height="1" fill="#A813A8" />
<rect x="21" y="21" width="1" height="1" fill="#CD17CD" />
<rect x="22" y="21" width="6" height="1" fill="#CE18CE" />
<rect x="28" y="21" width="1" height="1" fill="#C917C9" />
<rect x="29" y="21" width="1" height="1" fill="#710D71" />
<rect x="30" y="21" width="1" height="1" fill="#180218" />
<rect x="31" y="21" width="1" height="1" fill="#000000" />
<rect x="0" y="22" width="2" height="1" fill="#000000" />
<rect x="2" y="22" width="1" height="1" fill="#030003" />
<rect x="3" y="22" width="1" height="1" fill="#580A58" />
<rect x="4" y="22" width="1" height="1" fill="#CB17CB" />
<rect x="7" y="22" width="1" height="1" fill="#A012A0" />
<rect x="8" y="22" width="1" height="1" fill="#210321" />
<rect x="11" y="22" width="1" height="1" fill="#420742" />
<rect x="12" y="22" width="1" height="1" fill="#A813A8" />
<rect x="13" y="22" width="2" height="1" fill="#B414B4" />
<rect x="15" y="22" width="1" height="1" fill="#B014B0" />
<rect x="19" y="22" width="1" height="1" fill="#020002" />
<rect x="20" y="22" width="1" height="1" fill="#1A031A" />
<rect x="21" y="22" width="1" height="1" fill="#610B61" />
<rect x="22" y="22" width="1" height="1" fill="#A813A8" />
<rect x="23" y="22" width="1" height="1" fill="#B815B8" />
<rect x="24" y="22" width="1" height="1" fill="#BB15BB" />
<rect x="25" y="22" width="1" height="1" fill="#BA15BA" />
<rect x="26" y="22" width="1" height="1" fill="#B214B2" />
<rect x="27" y="22" width="1" height="1" fill="#8C108C" />
<rect x="28" y="22" width="1" height="1" fill="#390639" />
<rect x="29" y="22" width="1" height="1" fill="#070007" />
<rect x="30" y="22" width="1" height="1" fill="#000000" />
<rect x="0" y="23" width="1" height="1" fill="#080008" />
<rect x="1" y="23" width="1" height="1" fill="#1D031D" />
<rect x="2" y="23" width="1" height="1" fill="#500950" />
<rect x="3" y="23" width="1" height="1" fill="#BE16BE" />
<rect x="4" y="23" width="2" height="2" fill="#CE18CE" />
<rect x="6" y="23" width="1" height="1" fill="#CA17CA" />
<rect x="7" y="23" width="1" height="1" fill="#770D77" />
<rect x="8" y="23" width="1" height="1" fill="#060006" />
<rect x="11" y="23" width="1" height="1" fill="#040004" />
<rect x="12" y="23" width="1" height="1" fill="#0C010C" />
<rect x="13" y="23" width="3" height="1" fill="#0D010D" />
<rect x="19" y="23" width="3" height="1" fill="#000000" />
<rect x="22" y="23" width="1" height="1" fill="#070007" />
<rect x="23" y="23" width="1" height="1" fill="#220422" />
<rect x="24" y="23" width="1" height="1" fill="#2E052E" />
<rect x="25" y="23" width="1" height="1" fill="#2B052B" />
<rect x="26" y="23" width="1" height="1" fill="#130213" />
<rect x="27" y="23" width="1" height="1" fill="#010001" />
<rect x="28" y="23" width="2" height="1" fill="#000000" />
<rect x="0" y="24" width="1" height="1" fill="#870F87" />
<rect x="1" y="24" width="1" height="1" fill="#9D129D" />
<rect x="2" y="24" width="1" height="1" fill="#C116C1" />
<rect x="3" y="24" width="1" height="2" fill="#CE18CE" />
<rect x="6" y="24" width="1" height="1" fill="#B715B7" />
<rect x="7" y="24" width="1" height="1" fill="#2E052E" />
<rect x="8" y="24" width="1" height="2" fill="#000000" />
<rect x="11" y="24" width="5" height="1" fill="#000000" />
<rect x="22" y="24" width="6" height="1" fill="#000000" />
<rect x="0" y="25" width="3" height="2" fill="#CE18CE" />
<rect x="4" y="25" width="1" height="1" fill="#CE18CE" />
<rect x="5" y="25" width="1" height="1" fill="#C416C4" />
<rect x="6" y="25" width="1" height="1" fill="#530953" />
<rect x="7" y="25" width="1" height="1" fill="#020002" />
<rect x="3" y="26" width="1" height="1" fill="#C917C9" />
<rect x="4" y="26" width="1" height="1" fill="#A813A8" />
<rect x="5" y="26" width="1" height="1" fill="#500950" />
<rect x="6" y="26" width="1" height="1" fill="#040004" />
<rect x="7" y="26" width="1" height="1" fill="#000000" />
<rect x="0" y="27" width="1" height="1" fill="#CC17CC" />
<rect x="1" y="27" width="1" height="1" fill="#BC15BC" />
<rect x="2" y="27" width="1" height="1" fill="#9B129B" />
<rect x="3" y="27" width="1" height="1" fill="#640B64" />
<rect x="4" y="27" width="1" height="1" fill="#2A042A" />
<rect x="5" y="27" width="1" height="1" fill="#040004" />
<rect x="6" y="27" width="1" height="1" fill="#000000" />
<rect x="0" y="28" width="1" height="1" fill="#260426" />
<rect x="1" y="28" width="1" height="1" fill="#210321" />
<rect x="2" y="28" width="1" height="1" fill="#160216" />
<rect x="3" y="28" width="1" height="1" fill="#050005" />
<rect x="4" y="28" width="2" height="1" fill="#000000" />
<rect x="0" y="29" width="4" height="1" fill="#000000" />
</svg>