<?xml version="1.0" encoding="UTF-8" ?>
<svg version="1.1" width="16" height="16" xmlns="http://www.w3.org/2000/svg" shape-rendering="crispEdges">
<rect x="7" y="0" width="2" height="1" fill="#333333" />
<rect x="6" y="1" width="1" height="2" fill="#333333" />
<rect x="7" y="1" width="2" height="2" fill="#FFFFFF" />
<rect x="9" y="1" width="1" height="2" fill="#333333" />
<rect x="6" y="3" width="1" height="7" fill="#151515" />
<rect x="7" y="3" width="2" height="9" fill="#E1E1E1" />
<rect x="9" y="3" width="1" height="7" fill="#151515" />
<rect x="5" y="10" width="1" height="1" fill="#151515" />
<rect x="6" y="10" width="1" height="3" fill="#E1E1E1" />
<rect x="9" y="10" width="1" height="3" fill="#E1E1E1" />
<rect x="10" y="10" width="1" height="1" fill="#151515" />
<rect x="4" y="11" width="1" height="1" fill="#151515" />
<rect x="5" y="11" width="1" height="2" fill="#E1E1E1" />
<rect x="10" y="11" width="1" height="2" fill="#E1E1E1" />
<rect x="11" y="11" width="1" height="1" fill="#151515" />
<rect x="3" y="12" width="1" height="1" fill="#151515" />
<rect x="4" y="12" width="1" height="1" fill="#D2D2D2" />
<rect x="7" y="12" width="2" height="1" fill="#D2D2D2" />
<rect x="11" y="12" width="1" height="1" fill="#D2D2D2" />
<rect x="12" y="12" width="1" height="1" fill="#151515" />
<rect x="3" y="13" width="1" height="1" fill="#000000" />
<rect x="4" y="13" width="1" height="1" fill="#C3C3C3" />
<rect x="5" y="13" width="2" height="1" fill="#D2D2D2" />
<rect x="7" y="13" width="2" height="1" fill="#C3C3C3" />
<rect x="9" y="13" width="2" height="1" fill="#D2D2D2" />
<rect x="11" y="13" width="1" height="1" fill="#C3C3C3" />
<rect x="12" y="13" width="1" height="1" fill="#000000" />
<rect x="4" y="14" width="1" height="1" fill="#000000" />
<rect x="5" y="14" width="2" height="1" fill="#B4B4B4" />
<rect x="7" y="14" width="2" height="1" fill="#000000" />
<rect x="9" y="14" width="2" height="1" fill="#C3C3C3" />
<rect x="11" y="14" width="1" height="1" fill="#000000" />
<rect x="5" y="15" width="2" height="1" fill="#000000" />
<rect x="9" y="15" width="2" height="1" fill="#000000" />
</svg>