<?xml version="1.0" encoding="UTF-8" ?>
<svg version="1.1" width="16" height="10" xmlns="http://www.w3.org/2000/svg" shape-rendering="crispEdges">
<rect x="4" y="0" width="8" height="1" fill="#FFFFFF" opacity="0.749020" />
<rect x="1" y="1" width="3" height="1" fill="#FFFFFF" opacity="0.749020" />
<rect x="4" y="1" width="7" height="1" fill="#E6EFDA" />
<rect x="11" y="1" width="1" height="2" fill="#FF4629" />
<rect x="12" y="1" width="1" height="1" fill="#FFFFFF" opacity="0.749020" />
<rect x="0" y="2" width="1" height="1" fill="#FFFFFF" opacity="0.749020" />
<rect x="1" y="2" width="10" height="1" fill="#FF4629" />
<rect x="12" y="2" width="1" height="2" fill="#FF4629" />
<rect x="13" y="2" width="2" height="1" fill="#FFFFFF" opacity="0.749020" />
<rect x="1" y="3" width="2" height="1" fill="#FFFFFF" opacity="0.749020" />
<rect x="3" y="3" width="1" height="1" fill="#FF4629" />
<rect x="4" y="3" width="4" height="1" fill="#8CA5BD" />
<rect x="8" y="3" width="4" height="1" fill="#001000" />
<rect x="13" y="3" width="1" height="2" fill="#FFFFFF" opacity="0.749020" />
<rect x="14" y="3" width="1" height="1" fill="#9CFF1F" />
<rect x="15" y="3" width="1" height="2" fill="#FFFFFF" opacity="0.749020" />
<rect x="2" y="4" width="1" height="1" fill="#FFFFFF" opacity="0.749020" />
<rect x="3" y="4" width="1" height="2" fill="#8CA5BD" />
<rect x="4" y="4" width="1" height="3" fill="#082577" />
<rect x="5" y="4" width="1" height="1" fill="#8CA5BD" />
<rect x="6" y="4" width="4" height="4" fill="#E6EFDA" />
<rect x="10" y="4" width="1" height="3" fill="#082577" />
<rect x="11" y="4" width="1" height="1" fill="#8CA5BD" />
<rect x="12" y="4" width="1" height="4" fill="#001000" />
<rect x="14" y="4" width="1" height="1" fill="#6BCA67" />
<rect x="1" y="5" width="1" height="2" fill="#FFFFFF" opacity="0.749020" />
<rect x="2" y="5" width="1" height="2" fill="#6BCA67" />
<rect x="5" y="5" width="1" height="3" fill="#E6EFDA" />
<rect x="11" y="5" width="1" height="3" fill="#E6EFDA" />
<rect x="13" y="5" width="1" height="2" fill="#6BCA67" />
<rect x="14" y="5" width="1" height="2" fill="#FFFFFF" opacity="0.749020" />
<rect x="3" y="6" width="1" height="1" fill="#E6EFDA" />
<rect x="2" y="7" width="1" height="1" fill="#FFFFFF" opacity="0.749020" />
<rect x="3" y="7" width="1" height="1" fill="#001000" />
<rect x="4" y="7" width="1" height="1" fill="#E6EFDA" />
<rect x="10" y="7" width="1" height="1" fill="#E6EFDA" />
<rect x="13" y="7" width="1" height="1" fill="#FFFFFF" opacity="0.749020" />
<rect x="3" y="8" width="1" height="1" fill="#FFFFFF" opacity="0.749020" />
<rect x="4" y="8" width="3" height="1" fill="#001000" />
<rect x="7" y="8" width="1" height="1" fill="#8CA5BD" />
<rect x="8" y="8" width="4" height="1" fill="#001000" />
<rect x="12" y="8" width="1" height="1" fill="#FFFFFF" opacity="0.749020" />
<rect x="4" y="9" width="8" height="1" fill="#FFFFFF" opacity="0.749020" />
</svg>